<?xml version="1.0" encoding="UTF-8" standalone="no"?>
<!-- Created with Inkscape (http://www.inkscape.org/) -->

<svg
   xmlns:dc="http://purl.org/dc/elements/1.1/"
   xmlns:cc="http://creativecommons.org/ns#"
   xmlns:rdf="http://www.w3.org/1999/02/22-rdf-syntax-ns#"
   xmlns:svg="http://www.w3.org/2000/svg"
   xmlns="http://www.w3.org/2000/svg"
   xmlns:sodipodi="http://sodipodi.sourceforge.net/DTD/sodipodi-0.dtd"
   xmlns:inkscape="http://www.inkscape.org/namespaces/inkscape"
   width="250"
   height="250"
   id="svg2"
   version="1.1"
   inkscape:version="0.48.3.1 r9886"
   sodipodi:docname="jio-logo.svg">
  <defs
     id="defs4" />
  <sodipodi:namedview
     id="base"
     pagecolor="transparent"
     bordercolor="#666666"
     borderopacity="1.0"
     inkscape:pageopacity="0.0"
     inkscape:pageshadow="2"
     inkscape:zoom="1.017561"
     inkscape:cx="197.65953"
     inkscape:cy="220.57125"
     inkscape:document-units="px"
     inkscape:current-layer="layer2"
     showgrid="false"
     inkscape:window-width="1366"
     inkscape:window-height="748"
     inkscape:window-x="-2"
     inkscape:window-y="17"
     inkscape:window-maximized="1">
    <sodipodi:guide
       position="0,0"
       orientation="0,744.09448"
       id="guide2987" />
    <sodipodi:guide
       position="744.09448,0"
       orientation="-1052.3622,0"
       id="guide2989" />
    <sodipodi:guide
       position="744.09448,1052.3622"
       orientation="0,-744.09448"
       id="guide2991" />
    <sodipodi:guide
       position="0,1052.3622"
       orientation="1052.3622,0"
       id="guide2993" />
  </sodipodi:namedview>
  <metadata
     id="metadata7">
    <rdf:RDF>
      <cc:Work
         rdf:about="">
        <dc:format>image/svg+xml</dc:format>
        <dc:type
           rdf:resource="http://purl.org/dc/dcmitype/StillImage" />
        <dc:title />
      </cc:Work>
    </rdf:RDF>
  </metadata>
  <g
     inkscape:label="Layer 1"
     inkscape:groupmode="layer"
     id="layer1"
     style="display:inline"
     transform="translate(0,-802.36218)">
    <path
       style="fill:none;stroke:#000000;stroke-width:12.93378448px;stroke-linecap:butt;stroke-linejoin:miter;stroke-opacity:1"
       d="m 170.9362,864.54712 0,103.8471"
       id="path3008"
       inkscape:connector-curvature="0" />
  </g>
  <g
     inkscape:groupmode="layer"
     id="layer2"
     inkscape:label="Layer 2"
     style="display:inline"
     transform="translate(0,-802.36218)">
    <path
       sodipodi:type="arc"
       style="color:#000000;fill:none;stroke:#000000;stroke-width:13.67287827;stroke-linecap:round;stroke-linejoin:round;stroke-miterlimit:4;stroke-opacity:1;stroke-dasharray:none;marker:none;visibility:visible;display:inline;overflow:visible;enable-background:accumulate"
       id="path2988-2"
       sodipodi:cx="221.71036"
       sodipodi:cy="250.89195"
       sodipodi:rx="79.000244"
       sodipodi:ry="79.000244"
       d="m 300.7106,250.89195 a 79.000244,79.000244 0 1 1 -158.00049,0 79.000244,79.000244 0 1 1 158.00049,0 z"
       transform="matrix(0.85178613,0,0,0.85178613,-17.864163,748.865)" />
    <g
       transform="matrix(22.913133,0,0,25.241134,-5160.1455,-16539.144)"
       style="font-size:12px;font-style:normal;font-weight:normal;line-height:125%;letter-spacing:0px;word-spacing:0px;fill:#000000;fill-opacity:1;stroke:none;font-family:Sans"
       id="flowRoot3780">
      <path
         d="m 225.958,694.704 c 0.168,0 0.3,0.052 0.396,0.156 0.096,0.104 0.16,0.22 0.192,0.348 0.032,0.128 0.076,0.244 0.132,0.348 0.056,0.104 0.132,0.156 0.228,0.156 0.304,0 0.456,-0.264 0.456,-0.792 l 0,-5.556 c 0,-0.43999 -0.064,-0.71999 -0.192,-0.84 -0.128,-0.12799 -0.436,-0.20799 -0.924,-0.24 l 0,-0.228 3.444,0 0,0.228 c -0.488,0.032 -0.796,0.11201 -0.924,0.24 -0.12,0.12001 -0.18,0.40001 -0.18,0.84 l 0,4.44 c 0,0.752 -0.176,1.336 -0.528,1.752 -0.352,0.408 -0.852,0.612 -1.5,0.612 -0.344,0 -0.628,-0.08 -0.852,-0.24 -0.224,-0.16 -0.336,-0.368 -0.336,-0.624 0,-0.16 0.056,-0.3 0.168,-0.42 0.12,-0.12 0.26,-0.18 0.42,-0.18"
         style="font-variant:normal;font-stretch:normal;font-family:FreeSerif;-inkscape-font-specification:FreeSerif"
         id="path3832"
         inkscape:connector-curvature="0" />
    </g>
  </g>
</svg>
